<?xml version="1.0" encoding="iso-8859-1"?>
<!-- Generator: Adobe Illustrator 18.1.1, SVG Export Plug-In . SVG Version: 6.00 Build 0)  -->
<svg version="1.1" id="Capa_1" xmlns="http://www.w3.org/2000/svg" xmlns:xlink="http://www.w3.org/1999/xlink" x="0px" y="0px"
	 viewBox="0 0 449.367 449.367" style="enable-background:new 0 0 449.367 449.367;" xml:space="preserve">
<g>
	<g>
		<path d="M391.283,182.608h-32.017c-18.983,0-35.417,15.3-35.417,34.283v185.867c0,18.983,16.433,34.567,35.417,34.567h32.3
			c0.85,0,1.983-0.283,2.833-0.283c9.067-1.7,54.967-15.583,54.967-132.033c0-29.75-3.117-54.117-9.067-73.383
			c0.283-1.133,0.567-2.55,0.567-3.683c0-119.283-96.9-216.183-216.183-216.183S8.5,108.658,8.5,227.942c0,2.55,0.567,5.1,1.7,7.367
			C4.25,254.292,0,279.792,0,314.925c0,46.75,7.65,80.75,22.383,101.433c14.167,19.55,30.6,21.25,35.417,21.25c0,0,0.283,0,0.567,0
			h32.017c18.983,0,35.417-15.583,35.417-34.567V217.175c-0.283-19.267-16.717-34.567-35.7-34.567H57.8c-0.85,0-1.983,0-2.833,0.283
			c-1.417,0.283-4.25,0.85-7.367,2.267c19.267-79.9,91.233-139.4,177.083-139.4c85.567,0,157.25,59.217,176.8,138.55
			c-4.533-1.417-7.933-1.7-9.917-1.7C391.567,182.608,391.567,182.608,391.283,182.608z M60.917,216.608H90.1
			c0.283,0,1.417,0.283,1.417,0.283v185.867c0,0.283-1.133,0.567-1.417,0.567H58.083C51.567,400.492,34,383.492,34,314.642
			C34,236.725,55.817,219.442,60.917,216.608z M415.367,305.292c0,78.483-21.817,95.483-26.917,98.317h-29.183
			c-0.283,0-1.417-0.567-1.417-0.567V217.175c0-0.283,1.133-0.283,1.417-0.283h32.3C397.8,216.608,415.367,236.442,415.367,305.292z
			"/>
	</g>
</g>
<g>
</g>
<g>
</g>
<g>
</g>
<g>
</g>
<g>
</g>
<g>
</g>
<g>
</g>
<g>
</g>
<g>
</g>
<g>
</g>
<g>
</g>
<g>
</g>
<g>
</g>
<g>
</g>
<g>
</g>
</svg>
