<svg width="27" height="27" viewBox="0 0 27 27" fill="none" xmlns="http://www.w3.org/2000/svg">
<path d="M19.7473 18.5006C19.8323 18.2018 20.1434 18.0285 20.4422 18.1136C20.741 18.1986 20.9143 18.5097 20.8293 18.8085C20.5559 19.7693 19.7922 20.5224 18.8054 20.7691L9.662 23.0548C8.11638 23.412 6.60023 22.4776 6.24918 20.9564L3.88621 10.7169C3.54142 9.22276 4.45697 7.72782 5.94455 7.35592L8.06971 6.82463C8.37109 6.74929 8.67649 6.93253 8.75184 7.23391C8.82719 7.5353 8.64395 7.8407 8.34256 7.91604L6.21741 8.44733C5.32485 8.67047 4.77553 9.56744 4.9824 10.4639L7.34537 20.7034C7.55598 21.6161 8.46559 22.1767 9.39893 21.9611L18.5326 19.6777C19.1251 19.5295 19.583 19.078 19.7473 18.5006ZM22.5 14.9545V6.1875C22.5 5.25552 21.7445 4.5 20.8125 4.5H10.6875C9.75551 4.5 8.99999 5.25552 8.99999 6.1875V12.7045L11.4147 10.2898C11.6344 10.0701 11.9906 10.0701 12.2102 10.2898L16.3842 14.4637L19.3755 12.4695C19.5986 12.3207 19.8956 12.3502 20.0852 12.5398L22.5 14.9545ZM22.4859 16.5314L19.6158 13.6613L16.6245 15.6555C16.4014 15.8043 16.1043 15.7748 15.9147 15.5852L11.8125 11.483L8.99999 14.2955V16.3125C8.99999 17.2445 9.75551 18 10.6875 18H20.8125C21.6703 18 22.3786 17.36 22.4859 16.5314ZM10.6875 3.375H20.8125C22.3658 3.375 23.625 4.6342 23.625 6.1875V16.3125C23.625 17.8658 22.3658 19.125 20.8125 19.125H10.6875C9.13419 19.125 7.87499 17.8658 7.87499 16.3125V6.1875C7.87499 4.6342 9.13419 3.375 10.6875 3.375ZM18 5.625H20.25C20.8713 5.625 21.375 6.12868 21.375 6.75V9C21.375 9.62132 20.8713 10.125 20.25 10.125H18C17.3787 10.125 16.875 9.62132 16.875 9V6.75C16.875 6.12868 17.3787 5.625 18 5.625ZM18 6.75V9H20.25V6.75H18Z" fill="#3F97FF"/>
</svg>
