<svg width="34" height="34" viewBox="0 0 34 34" fill="none" xmlns="http://www.w3.org/2000/svg">
<g clip-path="url(#clip0_89_182)">
<path fill-rule="evenodd" clip-rule="evenodd" d="M14.0843 18.0079L12.2393 24.7288C12.1582 25.0231 12.3309 25.2039 12.4101 25.2682C12.4892 25.3325 12.7003 25.468 12.976 25.3311L27.3906 18.1422C27.6448 18.0145 27.6806 17.7801 27.6838 17.6868C27.6884 17.595 27.6667 17.365 27.4312 17.2224L13.5801 9.00528C13.3174 8.84965 13.0938 8.97061 13.0104 9.02926C12.9255 9.08926 12.7363 9.26025 12.7937 9.56083L14.1416 16.5092L21.6762 16.7327C22.0896 16.745 22.4158 17.0904 22.4042 17.5046C22.3925 17.9188 22.0458 18.2449 21.6323 18.2326L14.0843 18.0079ZM11.2554 26.2383C10.7808 25.7292 10.6046 25.0212 10.7928 24.3316L12.7496 17.2057L11.322 9.84623C11.1686 9.05267 11.4832 8.2698 12.1461 7.80334C12.8084 7.33614 13.6508 7.304 14.3447 7.71526L28.1958 15.9323C28.8328 16.3105 29.2084 17.0021 29.184 17.7414C29.156 18.484 28.7258 19.1517 28.059 19.4836L13.6452 26.6719C12.9208 27.0344 12.0828 26.9407 11.4583 26.4279C11.3854 26.3673 11.3182 26.3055 11.2554 26.2383Z" fill="#3F97FF"/>
</g>
<defs>
<clipPath id="clip0_89_182">
<rect width="24" height="24" fill="white" transform="translate(17.5525) rotate(47)"/>
</clipPath>
</defs>
</svg>
