<svg width="300" height="300" viewBox="0 0 300 300" fill="none" xmlns="http://www.w3.org/2000/svg">
<g clip-path="url(#clip0_66_151)">
<mask id="mask0_66_151" style="mask-type:luminance" maskUnits="userSpaceOnUse" x="97" y="97" width="106" height="106">
<path d="M97.5 97.5H202.5V202.5H97.5V97.5Z" fill="white"/>
</mask>
<g mask="url(#mask0_66_151)">
<path d="M129.631 189.659C128.916 189.3 128.434 188.547 128.434 187.706C128.434 181.762 130.869 176.366 134.753 172.459C135.341 171.872 136.034 171.262 136.706 170.716C137.631 171.872 138.388 173.153 138.934 174.497C138.534 174.812 138.178 175.169 137.819 175.525C134.944 178.403 133.075 182.247 132.8 186.509C134.628 187.537 136.034 188.187 137.378 188.378C138.659 188.547 140.088 188.294 142 187.622V180.334C142 175.587 140.047 171.262 136.897 168.153C133.788 165.003 129.484 163.094 124.759 163.094C120.894 163.094 117.344 164.375 114.488 166.475C111.781 168.512 109.681 171.284 108.525 174.519C110.603 177.981 113.103 181.216 115.938 184.072C124.653 192.787 136.728 198.162 150.022 198.162C153.213 198.162 156.341 197.85 159.45 197.197C162.116 196.672 164.7 195.916 167.263 194.972V187.684C167.263 182.937 165.309 178.653 162.159 175.503C159.05 172.397 154.747 170.444 150.022 170.444C148.697 170.444 147.438 170.612 146.2 170.884C145.613 169.5 144.875 168.175 144.016 166.978C145.925 166.412 147.922 166.097 150.022 166.097C153.359 166.097 156.553 166.894 159.388 168.237C161.172 165.612 163.525 163.428 166.234 161.791C169.466 159.837 173.247 158.725 177.259 158.725C181.563 158.725 185.616 160.006 188.997 162.231C191.222 163.703 193.219 165.572 194.772 167.775C196.956 162.212 198.153 156.144 198.153 149.969C198.153 136.675 192.778 124.644 184.063 115.928C175.347 107.212 163.313 101.837 150.022 101.837C136.728 101.837 124.653 107.234 115.938 115.95C107.222 124.662 101.847 136.697 101.847 149.991C101.847 157.003 103.359 163.641 106.025 169.666C107.497 167.084 109.534 164.816 111.928 163.009C115.559 160.344 119.969 158.747 124.778 158.747C130.722 158.747 136.078 161.181 139.984 165.069C143.888 168.953 146.303 174.391 146.303 180.312V189.072C146.303 189.994 145.716 190.812 144.875 191.106C141.578 192.45 139.228 192.934 136.834 192.619C134.522 192.347 132.466 191.319 129.631 189.659ZM124.778 135.225C127.531 135.225 129.988 136.341 131.794 138.103C133.578 139.887 134.691 142.409 134.691 145.119C134.691 147.869 133.578 150.325 131.794 152.131C130.009 153.916 127.531 155.028 124.778 155.028C122.069 155.028 119.572 153.916 117.766 152.131C115.981 150.347 114.888 147.869 114.888 145.119C114.888 142.409 115.959 139.909 117.766 138.103C119.55 136.341 122.069 135.225 124.778 135.225ZM128.728 141.15C127.741 140.162 126.334 139.553 124.778 139.553C123.266 139.553 121.881 140.141 120.831 141.15C119.844 142.178 119.194 143.584 119.194 145.097C119.194 146.65 119.822 148.037 120.831 149.044C121.859 150.031 123.266 150.681 124.778 150.681C126.334 150.681 127.719 150.053 128.728 149.044C129.734 148.037 130.366 146.65 130.366 145.097C130.344 143.584 129.713 142.178 128.728 141.15ZM175.222 135.225C177.972 135.225 180.428 136.341 182.234 138.103C184.019 139.887 185.113 142.409 185.113 145.119C185.113 147.869 184.041 150.325 182.234 152.131C180.45 153.916 177.972 155.028 175.222 155.028C172.469 155.028 170.013 153.916 168.206 152.131C166.422 150.347 165.309 147.869 165.309 145.119C165.309 142.409 166.422 139.909 168.206 138.103C170.013 136.341 172.469 135.225 175.222 135.225ZM179.169 141.15C178.141 140.162 176.734 139.553 175.222 139.553C173.666 139.553 172.281 140.141 171.272 141.15C170.288 142.178 169.634 143.584 169.634 145.097C169.634 146.65 170.266 148.037 171.272 149.044C172.281 150.053 173.666 150.681 175.222 150.681C176.734 150.681 178.119 150.053 179.169 149.044C180.156 148.056 180.806 146.65 180.806 145.097C180.806 143.584 180.156 142.178 179.169 141.15ZM150.022 142.428C152.731 142.428 155.188 143.544 156.994 145.328C158.778 147.112 159.891 149.591 159.891 152.341C159.891 155.05 158.778 157.506 156.994 159.312C155.209 161.1 152.731 162.212 150.022 162.212C147.269 162.212 144.813 161.1 143.006 159.312C141.222 157.528 140.109 155.05 140.109 152.341C140.109 149.591 141.222 147.134 143.006 145.328C144.813 143.544 147.269 142.428 150.022 142.428ZM153.928 148.394C152.941 147.406 151.534 146.756 150.022 146.756C148.466 146.756 147.081 147.384 146.072 148.394C145.044 149.381 144.434 150.787 144.434 152.341C144.434 153.853 145.022 155.241 146.072 156.247C147.059 157.275 148.466 157.884 150.022 157.884C151.534 157.884 152.919 157.297 153.928 156.247C154.956 155.259 155.566 153.853 155.566 152.341C155.566 150.787 154.956 149.4 153.928 148.394ZM163.041 170.528C163.838 171.116 164.553 171.766 165.225 172.437C169.131 176.344 171.547 181.762 171.547 187.684V196.441C171.547 197.428 170.916 198.269 169.991 198.522C166.841 199.844 163.588 200.787 160.313 201.459C156.931 202.131 153.466 202.491 150 202.491C135.469 202.491 122.363 196.587 112.85 187.119C103.4 177.625 97.5 164.522 97.5 149.991C97.5 135.5 103.4 122.397 112.872 112.881C122.384 103.412 135.488 97.5094 150.022 97.5094C164.513 97.5094 177.616 103.412 187.128 112.881C196.6 122.397 202.5 135.5 202.5 149.991C202.5 158.2 200.588 166.159 197.041 173.322C196.956 173.447 196.913 173.55 196.85 173.678C196.684 173.95 196.578 174.244 196.409 174.519C192.503 181.972 186.772 188.462 179.609 193.353C178.622 194.025 177.3 193.753 176.628 192.787C175.956 191.8 176.188 190.434 177.194 189.762C183.769 185.269 189.019 179.325 192.609 172.481C191.266 169.812 189.188 167.503 186.666 165.866C183.956 164.122 180.722 163.072 177.278 163.072C174.044 163.072 171.022 163.953 168.481 165.509C166.297 166.791 164.469 168.512 163.041 170.528Z" fill="#3F97FF"/>
</g>
</g>
<defs>
<clipPath id="clip0_66_151">
<rect width="300" height="300" fill="white"/>
</clipPath>
</defs>
</svg>
