<svg width="15" height="15" viewBox="0 0 15 15" fill="none" xmlns="http://www.w3.org/2000/svg">
<path d="M11.4617 12.8525C11.4621 12.8525 11.4625 12.8525 11.4629 12.8521C11.4629 12.8521 11.4633 12.8521 11.4633 12.8517L11.4617 12.8525ZM11.7058 12.7867C11.6187 12.7867 11.5296 12.8067 11.4629 12.8521C10.3542 13.6742 8.98583 14.1667 7.5 14.1667C3.81833 14.1667 0.833333 11.1821 0.833333 7.5C0.833333 3.81792 3.81833 0.833333 7.5 0.833333C11.1767 0.833333 14.1571 3.81 14.1658 7.48458L14.9992 7.47875C14.9875 3.34667 11.635 0 7.5 0C3.35792 0 0 3.35792 0 7.5C0 11.6421 3.35792 15 7.5 15C9.12833 15 10.6275 14.4712 11.8562 13.5892C12.0117 13.5283 12.1225 13.3796 12.1225 13.2029C12.1225 12.9729 11.9358 12.7867 11.7058 12.7867ZM14.1667 7.5C14.1667 8.65083 13.2342 9.58333 12.0833 9.58333C10.9325 9.58333 10 8.65083 10 7.5V5.41667C10 5.18625 9.81375 5 9.58333 5C9.35292 5 9.16667 5.18625 9.16667 5.41667V5.64917C8.72333 5.25 8.14292 5 7.5 5C6.11917 5 5 6.11958 5 7.5C5 8.88042 6.11917 10 7.5 10C8.35125 10 9.10083 9.57292 9.55208 8.92333C10.0521 9.81042 10.9921 10.4167 12.0833 10.4167C13.6942 10.4167 15 9.11083 15 7.5H14.1667ZM7.5 9.16667C6.57958 9.16667 5.83333 8.42042 5.83333 7.5C5.83333 6.57958 6.57958 5.83333 7.5 5.83333C8.42042 5.83333 9.16667 6.57958 9.16667 7.5C9.16667 8.42042 8.42042 9.16667 7.5 9.16667Z" fill="#3F97FF"/>
</svg>
