<svg width="13" height="13" viewBox="0 0 13 13" fill="none" xmlns="http://www.w3.org/2000/svg">
<path d="M0.875 1.8125V3.06661C0.875 8.07169 4.93242 12.1291 9.9375 12.1291H11.1875C11.7053 12.1291 12.125 11.7094 12.125 11.1916V9.58845C12.125 9.18492 11.8668 8.82667 11.484 8.69906L9.49443 8.03588C9.09336 7.90219 8.65243 8.05348 8.41792 8.40524L7.96231 9.08865C7.72781 9.44041 7.28688 9.5917 6.8858 9.45801L5.93243 9.14021C4.95476 8.81432 4.20464 8.02138 3.93349 7.02714L3.54158 5.59013C3.41066 5.1101 3.67755 4.61141 4.14958 4.45407L4.52618 4.32854C4.92017 4.19721 5.16007 3.79876 5.09179 3.38911L4.80334 1.65838C4.72799 1.20632 4.33688 0.875 3.87859 0.875H1.8125C1.29473 0.875 0.875 1.29473 0.875 1.8125ZM0.25 1.8125C0.25 0.949555 0.949555 0.25 1.8125 0.25H3.87859C4.6424 0.25 5.29426 0.802208 5.41983 1.55563L5.70829 3.28636C5.82712 3.99937 5.40958 4.69288 4.72382 4.92146L4.34722 5.047C4.18988 5.09944 4.10092 5.26567 4.14455 5.42568L4.53647 6.86269C4.75264 7.65532 5.35065 8.28748 6.13007 8.54729L7.08345 8.86508C7.21714 8.90964 7.36411 8.85921 7.44228 8.74196L7.89789 8.05855C8.28873 7.47228 9.02362 7.22014 9.69207 7.44295L11.6816 8.10613C12.3196 8.31881 12.75 8.9159 12.75 9.58845V11.1916C12.75 12.0546 12.0504 12.7541 11.1875 12.7541H9.9375C4.58724 12.7541 0.25 8.41687 0.25 3.06661V1.8125Z" fill="#3F97FF"/>
</svg>
