<svg width="30" height="30" viewBox="0 0 30 30" fill="none" xmlns="http://www.w3.org/2000/svg">
<path fill-rule="evenodd" clip-rule="evenodd" d="M21.25 18.75C20.5596 18.75 20 19.3096 20 20C20 20.6904 20.5596 21.25 21.25 21.25C21.9404 21.25 22.5 20.6904 22.5 20C22.5 19.3096 21.9404 18.75 21.25 18.75ZM18.75 20C18.75 18.6193 19.8693 17.5 21.25 17.5C22.6307 17.5 23.75 18.6193 23.75 20C23.75 21.3807 22.6307 22.5 21.25 22.5C19.8693 22.5 18.75 21.3807 18.75 20Z" fill="#CBCACA"/>
<path fill-rule="evenodd" clip-rule="evenodd" d="M8.75 6.25C8.05965 6.25 7.5 6.80965 7.5 7.5C7.5 8.19035 8.05965 8.75 8.75 8.75C9.44035 8.75 10 8.19035 10 7.5C10 6.80965 9.44035 6.25 8.75 6.25ZM6.25 7.5C6.25 6.11929 7.36929 5 8.75 5C10.1307 5 11.25 6.11929 11.25 7.5C11.25 8.88071 10.1307 10 8.75 10C7.36929 10 6.25 8.88071 6.25 7.5Z" fill="#CBCACA"/>
<path fill-rule="evenodd" clip-rule="evenodd" d="M21.2506 22.5C19.2864 22.5 17.6229 23.795 17.0705 25.5794L15.8765 25.2096C16.5862 22.9167 18.723 21.25 21.2506 21.25C23.7784 21.25 25.9151 22.9167 26.6249 25.2096L25.4309 25.5794C24.8785 23.795 23.215 22.5 21.2506 22.5Z" fill="#CBCACA"/>
<path fill-rule="evenodd" clip-rule="evenodd" d="M8.75069 10C6.78639 10 5.12293 11.295 4.57056 13.0794L3.37646 12.7096C4.08628 10.4168 6.22301 8.75 8.75069 8.75C11.2784 8.75 13.4151 10.4168 14.1249 12.7096L12.9309 13.0794C12.3785 11.295 10.715 10 8.75069 10Z" fill="#CBCACA"/>
<path fill-rule="evenodd" clip-rule="evenodd" d="M21.25 15.625C18.1434 15.625 15.625 18.1434 15.625 21.25C15.625 24.3566 18.1434 26.875 21.25 26.875C24.3566 26.875 26.875 24.3566 26.875 21.25C26.875 18.1434 24.3566 15.625 21.25 15.625ZM14.375 21.25C14.375 17.453 17.453 14.375 21.25 14.375C25.047 14.375 28.125 17.453 28.125 21.25C28.125 25.047 25.047 28.125 21.25 28.125C17.453 28.125 14.375 25.047 14.375 21.25Z" fill="#CBCACA"/>
<path fill-rule="evenodd" clip-rule="evenodd" d="M8.75 3.125C5.6434 3.125 3.125 5.6434 3.125 8.75C3.125 11.8566 5.6434 14.375 8.75 14.375C11.8566 14.375 14.375 11.8566 14.375 8.75C14.375 5.6434 11.8566 3.125 8.75 3.125ZM1.875 8.75C1.875 4.95304 4.95304 1.875 8.75 1.875C12.547 1.875 15.625 4.95304 15.625 8.75C15.625 12.547 12.547 15.625 8.75 15.625C4.95304 15.625 1.875 12.547 1.875 8.75Z" fill="#CBCACA"/>
<path fill-rule="evenodd" clip-rule="evenodd" d="M7.5 19.375C6.46446 19.375 5.625 20.2145 5.625 21.25C5.625 22.2855 6.46446 23.125 7.5 23.125C8.53554 23.125 9.375 22.2855 9.375 21.25C9.375 20.2145 8.53554 19.375 7.5 19.375ZM4.375 21.25C4.375 19.5241 5.77411 18.125 7.5 18.125C9.22589 18.125 10.625 19.5241 10.625 21.25C10.625 22.9759 9.22589 24.375 7.5 24.375C5.77411 24.375 4.375 22.9759 4.375 21.25Z" fill="#CBCACA"/>
<path fill-rule="evenodd" clip-rule="evenodd" d="M22.5 6.875C23.5355 6.875 24.375 7.71446 24.375 8.75C24.375 9.78554 23.5355 10.625 22.5 10.625C21.4645 10.625 20.625 9.78554 20.625 8.75C20.625 7.71446 21.4645 6.875 22.5 6.875ZM25.625 8.75C25.625 7.02411 24.2259 5.625 22.5 5.625C20.7741 5.625 19.375 7.02411 19.375 8.75C19.375 10.4759 20.7741 11.875 22.5 11.875C24.2259 11.875 25.625 10.4759 25.625 8.75Z" fill="#CBCACA"/>
<path fill-rule="evenodd" clip-rule="evenodd" d="M10 20.625H15V21.875H10V20.625Z" fill="#CBCACA"/>
<path fill-rule="evenodd" clip-rule="evenodd" d="M20 8.125H15V9.375H20V8.125Z" fill="#CBCACA"/>
<path fill-rule="evenodd" clip-rule="evenodd" d="M13.567 12.683L17.317 16.433L16.4331 17.317L12.6831 13.567L13.567 12.683Z" fill="#CBCACA"/>
</svg>
