<svg width="30" height="30" viewBox="0 0 30 30" fill="none" xmlns="http://www.w3.org/2000/svg">
<path d="M7.03125 11.4844C7.03125 15.8672 10.6172 19.4531 15 19.4531C19.3828 19.4531 22.9688 15.8672 22.9688 11.4844C22.9688 7.10156 19.3828 3.51562 15 3.51562C10.6172 3.51562 7.03125 7.10156 7.03125 11.4844ZM21.0938 11.4844C21.0938 14.8359 18.3516 17.5781 15 17.5781C11.6484 17.5781 8.90625 14.8359 8.90625 11.4844C8.90625 8.13281 11.6484 5.39062 15 5.39062C18.3516 5.39062 21.0938 8.13281 21.0938 11.4844Z" fill="#CBCACA"/>
<path d="M5.71875 27.9844C8.20312 25.5 11.4844 24.1406 15 24.1406C18.5156 24.1406 21.7969 25.5 24.2812 27.9844L25.6172 26.6484C22.7813 23.8359 19.0078 22.2656 15 22.2656C10.9922 22.2656 7.21875 23.8359 4.38281 26.6484L5.71875 27.9844Z" fill="#CBCACA"/>
</svg>
