<svg width="30" height="30" viewBox="0 0 30 30" fill="none" xmlns="http://www.w3.org/2000/svg">
<path d="M15.0017 1.7193C7.67319 1.7193 1.71875 7.66925 1.71875 14.9977C1.71875 22.3263 7.67319 28.2807 15.0017 28.2807C22.3302 28.2807 28.2812 22.3263 28.2812 14.9977C28.2812 7.66925 22.3302 1.7193 15.0017 1.7193ZM15.0017 2.87427C17.0124 2.87427 18.9076 3.3621 20.5756 4.22545C20.1479 6.82443 19.8956 9.00758 18.2421 10.731C17.6577 11.3401 17.2544 11.4923 16.8604 11.4596C16.4665 11.4268 15.9553 11.1469 15.3096 10.5607C14.7318 10.0377 14.0629 9.60549 13.4633 9.18357C13.5369 9.1639 13.6113 9.14171 13.6855 9.11939C13.9902 9.0262 14.1617 8.70359 14.0689 8.39874C13.9758 8.09398 13.6531 7.92244 13.3482 8.01524C12.4882 8.275 11.6363 8.39533 11.0587 8.39533C11.054 8.39528 11.0506 8.39528 11.0462 8.39533C9.18462 8.43271 7.10372 7.29403 6.1524 6.70353C8.58735 4.26857 12.1378 2.91989 15.0017 2.87427ZM16.1975 17.2889C16.1381 14.9463 15.2295 13.6424 14.1197 13.0634C13.2586 12.6143 12.3395 12.5701 11.7016 12.5762C8.85691 12.6019 5.97337 12.5851 3.11395 12.5851C3.48632 10.7367 4.2785 9.04179 5.38661 7.6032C6.33106 8.23356 8.65606 9.59817 11.0677 9.54992C11.3746 9.54955 11.7167 9.52368 12.0817 9.47337C12.3002 9.78147 12.6478 10.011 12.9095 10.2065C13.4021 10.552 13.9872 10.9247 14.5291 11.4167C15.2557 12.0763 15.9605 12.5442 16.7668 12.6111C17.5731 12.6781 18.3553 12.2803 19.0733 11.5318C20.9109 9.61652 21.2573 7.27532 21.6438 4.85024C24.6913 6.84668 26.7816 10.1789 27.0868 14.021C26.4983 13.7667 25.9307 13.6307 25.3995 13.5992C25.2989 13.5921 25.1987 13.5903 25.1006 13.5921C24.4145 13.601 23.7953 13.7811 23.2758 14.0895C22.0881 14.7944 21.426 16.0669 21.426 17.278C21.426 17.8158 21.3309 18.1068 21.2174 18.3055C20.8287 18.7708 20.2809 19.1471 19.9858 19.5631C19.7507 19.9237 19.6057 20.4115 19.6057 21.0293C19.6057 22.5366 19.7808 23.5289 20.1256 24.299C20.3545 24.81 20.6548 25.1976 20.9794 25.5532C19.2161 26.5533 17.1767 27.1255 15.0017 27.1255C10.1421 27.1255 5.95675 24.2754 4.02074 20.1541C4.33961 20.1925 4.654 20.2228 4.95461 20.2455C5.96508 20.3217 6.84151 21.2334 7.51714 22.2452C8.04856 23.0411 8.80241 23.7646 9.66574 24.2528C10.5238 24.738 11.5186 24.9922 12.4877 24.7389C13.4596 24.5235 14.1558 23.9848 14.5291 23.3404C14.8938 22.7108 14.9724 22.0105 14.8427 21.4004C14.7079 20.7508 14.9509 20.1134 15.2623 19.6669C15.622 19.1533 16.1865 18.52 16.2006 17.5431L16.1975 17.2889ZM11.7185 13.7379C12.3092 13.7397 13.0028 13.7829 13.5828 14.0853C14.3556 14.4884 15.0434 15.2992 15.0445 17.5298C15.0354 18.0692 14.7244 18.4218 14.3159 19.005C14.2254 19.1342 14.1342 19.2771 14.0486 19.4325C13.9709 19.3048 13.8934 19.1817 13.8174 19.0648C13.6438 18.7955 13.2837 18.7192 13.0155 18.8946C12.7477 19.0696 12.6736 19.4283 12.8497 19.6954C13.0597 20.0185 13.2794 20.3895 13.4418 20.7274C13.7842 21.4316 13.7533 22.1001 13.5277 22.7654C13.3118 23.1381 12.9404 23.4645 12.2751 23.6245C11.6097 23.7845 10.9147 23.6334 10.232 23.247C9.54938 22.861 8.90889 22.2476 8.48045 21.606C7.73468 20.4892 6.64573 19.2163 5.04045 19.0954C4.55288 19.0587 4.03211 18.9944 3.51782 18.9103C3.10061 17.6831 2.87493 16.367 2.87493 14.9977C2.87493 14.5728 2.89669 14.1536 2.93922 13.7401H11.1704C11.3367 13.7401 11.5215 13.7379 11.7185 13.7379ZM25.3465 14.7316C25.8611 14.7638 26.4507 14.9407 27.1218 15.3226C27.0177 19.2977 25.0069 22.7925 21.9697 24.9275C21.6296 24.5734 21.3731 24.259 21.179 23.8256C20.9264 23.2614 20.7617 22.4472 20.7617 21.0296C20.7617 20.5751 20.8476 20.3563 20.9535 20.1938C21.1859 19.9098 21.4057 19.7513 21.6595 19.5442C21.8311 19.4354 22.6461 18.9338 23.4641 18.6768C23.7693 18.5819 23.939 18.2566 23.8431 17.9517C23.7481 17.6464 23.4239 17.4768 23.119 17.5727C22.9255 17.6333 22.7361 17.7036 22.555 17.7778C22.5726 17.6217 22.581 17.4555 22.581 17.2782C22.581 16.5126 23.0592 15.5641 23.869 15.0834C24.2739 14.843 24.7623 14.6948 25.3465 14.7316Z" fill="#CBCACA"/>
</svg>
